<svg width="25" height="24" viewBox="0 0 25 24" fill="none" xmlns="http://www.w3.org/2000/svg">
<path d="M5.90005 18.6L14.9 14.4L19.1 5.4L10.1 9.6L5.90005 18.6ZM12.5 13.2C12.16 13.2 11.875 13.085 11.645 12.855C11.415 12.625 11.3 12.34 11.3 12C11.3 11.66 11.415 11.375 11.645 11.145C11.875 10.915 12.16 10.8 12.5 10.8C12.84 10.8 13.125 10.915 13.355 11.145C13.585 11.375 13.7 11.66 13.7 12C13.7 12.34 13.585 12.625 13.355 12.855C13.125 13.085 12.84 13.2 12.5 13.2ZM12.5 24C10.84 24 9.28005 23.685 7.82005 23.055C6.36005 22.425 5.09005 21.57 4.01005 20.49C2.93005 19.41 2.07505 18.14 1.44505 16.68C0.815046 15.22 0.500046 13.66 0.500046 12C0.500046 10.34 0.815046 8.78 1.44505 7.32C2.07505 5.86 2.93005 4.59 4.01005 3.51C5.09005 2.43 6.36005 1.575 7.82005 0.945C9.28005 0.315 10.84 0 12.5 0C14.16 0 15.72 0.315 17.18 0.945C18.64 1.575 19.91 2.43 20.99 3.51C22.07 4.59 22.925 5.86 23.555 7.32C24.185 8.78 24.5 10.34 24.5 12C24.5 13.66 24.185 15.22 23.555 16.68C22.925 18.14 22.07 19.41 20.99 20.49C19.91 21.57 18.64 22.425 17.18 23.055C15.72 23.685 14.16 24 12.5 24ZM12.5 21.6C15.18 21.6 17.45 20.67 19.31 18.81C21.17 16.95 22.1 14.68 22.1 12C22.1 9.32 21.17 7.05 19.31 5.19C17.45 3.33 15.18 2.4 12.5 2.4C9.82005 2.4 7.55005 3.33 5.69005 5.19C3.83005 7.05 2.90005 9.32 2.90005 12C2.90005 14.68 3.83005 16.95 5.69005 18.81C7.55005 20.67 9.82005 21.6 12.5 21.6Z" fill="#E8EAED"/>
</svg>
