<svg width="23" height="22" viewBox="0 0 23 22" fill="none" xmlns="http://www.w3.org/2000/svg">
<path d="M11.4999 10.9999C10.0332 10.9999 8.77765 10.4777 7.73321 9.43325C6.68877 8.38881 6.16654 7.13325 6.16654 5.66658C6.16654 4.19992 6.68877 2.94436 7.73321 1.89992C8.77765 0.855474 10.0332 0.333252 11.4999 0.333252C12.9665 0.333252 14.2221 0.855474 15.2665 1.89992C16.311 2.94436 16.8332 4.19992 16.8332 5.66658C16.8332 7.13325 16.311 8.38881 15.2665 9.43325C14.2221 10.4777 12.9665 10.9999 11.4999 10.9999ZM0.83321 21.6666V17.9333C0.83321 17.1777 1.02765 16.4833 1.41654 15.8499C1.80543 15.2166 2.3221 14.7333 2.96654 14.3999C4.34432 13.711 5.74432 13.1944 7.16654 12.8499C8.58877 12.5055 10.0332 12.3333 11.4999 12.3333C12.9665 12.3333 14.411 12.5055 15.8332 12.8499C17.2554 13.1944 18.6554 13.711 20.0332 14.3999C20.6777 14.7333 21.1943 15.2166 21.5832 15.8499C21.9721 16.4833 22.1665 17.1777 22.1665 17.9333V21.6666H0.83321ZM3.49988 18.9999H19.4999V17.9333C19.4999 17.6888 19.4388 17.4666 19.3165 17.2666C19.1943 17.0666 19.0332 16.911 18.8332 16.7999C17.6332 16.1999 16.4221 15.7499 15.1999 15.4499C13.9777 15.1499 12.7443 14.9999 11.4999 14.9999C10.2554 14.9999 9.0221 15.1499 7.79988 15.4499C6.57765 15.7499 5.36654 16.1999 4.16654 16.7999C3.96654 16.911 3.80543 17.0666 3.68321 17.2666C3.56099 17.4666 3.49988 17.6888 3.49988 17.9333V18.9999ZM11.4999 8.33325C12.2332 8.33325 12.861 8.07214 13.3832 7.54992C13.9054 7.0277 14.1665 6.39992 14.1665 5.66658C14.1665 4.93325 13.9054 4.30547 13.3832 3.78325C12.861 3.26103 12.2332 2.99992 11.4999 2.99992C10.7665 2.99992 10.1388 3.26103 9.61654 3.78325C9.09432 4.30547 8.83321 4.93325 8.83321 5.66658C8.83321 6.39992 9.09432 7.0277 9.61654 7.54992C10.1388 8.07214 10.7665 8.33325 11.4999 8.33325Z" fill="white"/>
</svg>
